<svg xmlns="http://www.w3.org/2000/svg" width="13.622" height="14.524" viewBox="0 0 13.622 14.524">
  <path id="home-svgrepo-com" d="M9,3.065a.681.681,0,0,0-.381,0,.757.757,0,0,0-.233.138c-.141.107-.313.259-.582.5L4.238,6.873a3.937,3.937,0,0,0-.648.636,1.362,1.362,0,0,0-.183.407,3.935,3.935,0,0,0-.045.907v3.406c0,.593,0,1,.026,1.308a1.468,1.468,0,0,0,.127.566,1.362,1.362,0,0,0,.581.581,1.468,1.468,0,0,0,.566.127c.312.026.715.026,1.308.026h.116V12.794a2.724,2.724,0,0,1,5.449,0v2.043h.116c.593,0,1,0,1.308-.026a1.468,1.468,0,0,0,.566-.127,1.362,1.362,0,0,0,.581-.581,1.467,1.467,0,0,0,.127-.566c.026-.312.026-.715.026-1.308V8.823a3.931,3.931,0,0,0-.045-.907,1.362,1.362,0,0,0-.183-.407,3.937,3.937,0,0,0-.648-.636L9.815,3.7c-.268-.239-.441-.391-.582-.5A.757.757,0,0,0,9,3.065ZM8.239,1.757a2.043,2.043,0,0,1,1.143,0,2.068,2.068,0,0,1,.674.36c.189.143.4.332.646.549l3.587,3.189.057.051a4.62,4.62,0,0,1,.82.849,2.725,2.725,0,0,1,.366.815,4.618,4.618,0,0,1,.09,1.177v3.511c0,.557,0,1.018-.031,1.392a2.783,2.783,0,0,1-.276,1.081,2.724,2.724,0,0,1-1.162,1.162,2.783,2.783,0,0,1-1.082.276c-.375.031-.835.031-1.392.031h-.293c-.082,0-.181,0-.268-.007a1,1,0,0,1-.938-.938c-.007-.087-.007-.185-.007-.268V12.794a1.362,1.362,0,0,0-2.724,0v2.192c0,.082,0,.181-.007.268a1,1,0,0,1-.938.938c-.087.007-.185.007-.268.007H5.942c-.557,0-1.018,0-1.392-.031a2.783,2.783,0,0,1-1.081-.276,2.724,2.724,0,0,1-1.162-1.162,2.784,2.784,0,0,1-.276-1.081C2,13.275,2,12.815,2,12.257V8.823c0-.026,0-.051,0-.077a4.619,4.619,0,0,1,.09-1.177,2.724,2.724,0,0,1,.366-.815,4.619,4.619,0,0,1,.82-.849l.057-.051L6.92,2.666c.245-.217.457-.406.646-.549A2.068,2.068,0,0,1,8.239,1.757Z" transform="translate(-2 -1.676)" fill="#fff" fill-rule="evenodd"/>
</svg>
