<svg xmlns="http://www.w3.org/2000/svg" width="14.04" height="14.524" viewBox="0 0 14.04 14.524">
  <g id="multi-picklist-svgrepo-com" transform="translate(-2.8 -2)">
    <path id="Path_241" data-name="Path 241" d="M23.2,2H15.452A1.473,1.473,0,0,0,14,3.452v.242a.223.223,0,0,0,.242.242h7.02a1.473,1.473,0,0,1,1.452,1.452v7.5a.223.223,0,0,0,.242.242H23.2a1.473,1.473,0,0,0,1.452-1.452V3.452A1.473,1.473,0,0,0,23.2,2Z" transform="translate(-7.811)" fill="#fafafa"/>
    <path id="Path_242" data-name="Path 242" d="M12,13.2H4.252A1.473,1.473,0,0,0,2.8,14.652v8.23a1.473,1.473,0,0,0,1.452,1.452H12a1.473,1.473,0,0,0,1.452-1.452v-8.23A1.473,1.473,0,0,0,12,13.2Zm-5.81,8.714A.478.478,0,0,1,5.7,22.4H5.221a.478.478,0,0,1-.484-.484V21.43a.478.478,0,0,1,.484-.484H5.7a.478.478,0,0,1,.484.484Zm0-2.9a.478.478,0,0,1-.484.484H5.221a.478.478,0,0,1-.484-.484v-.484a.478.478,0,0,1,.484-.484H5.7a.478.478,0,0,1,.484.484Zm0-2.9a.478.478,0,0,1-.484.484H5.221a.478.478,0,0,1-.484-.484v-.484a.478.478,0,0,1,.484-.484H5.7a.478.478,0,0,1,.484.484Zm5.325,5.81a.478.478,0,0,1-.484.484H7.672a.478.478,0,0,1-.484-.484V21.43a.478.478,0,0,1,.484-.484H11.03a.478.478,0,0,1,.484.484Zm0-2.9a.478.478,0,0,1-.484.484H7.672a.478.478,0,0,1-.484-.484v-.484a.478.478,0,0,1,.484-.484H11.03a.478.478,0,0,1,.484.484Zm0-2.9a.478.478,0,0,1-.484.484H7.672a.478.478,0,0,1-.484-.484v-.484a.478.478,0,0,1,.484-.484H11.03a.478.478,0,0,1,.484.484Z" transform="translate(0 -7.811)" fill="#fafafa"/>
  </g>
</svg>
