<svg xmlns="http://www.w3.org/2000/svg" width="16.947" height="14" viewBox="0 0 16.947 14">
  <path id="news-svgrepo-com" d="M3.118,17.959q-.437,0-.875-.017l-.136-.031A1.871,1.871,0,0,1,.695,16.443l-.022-.114C.666,16.2.66,15.826.66,15.5V4.547a.591.591,0,0,1,.59-.588H14.423a.59.59,0,0,1,.588.588V6.442h1.971a.627.627,0,0,1,.624.624v8.91a1.982,1.982,0,0,1-1.982,1.982Zm0-1.374H13.737a1.98,1.98,0,0,1-.1-.608V13.284q0-.067,0-.135V5.332H2.034V15.5c0,.27,0,.533.007.674l0,.01a.5.5,0,0,0,.372.387l.012,0c.165,0,.444.01.69.01Zm9-9.088H3.5V8.871h8.622ZM7.164,10.449H3.5v4.376H7.164Zm4.958.032H8.555v1.374H12.12Zm0,2.986H8.555V14.84H12.12Zm2.894-5.653v8.163a.61.61,0,1,0,1.219,0V7.813Z" transform="translate(-0.66 -3.959)" fill="#fff"/>
</svg>
