<svg id="icon-action-cached_24px" xmlns="http://www.w3.org/2000/svg" width="21" height="20" viewBox="0 0 21 20">
  <rect id="Boundary" width="20" height="20" fill="none"/>
  <path id="_Color" data-name=" ↳Color" d="M9.5,15a6.47,6.47,0,0,1-3.679-1.163l1.261-1.369a4.768,4.768,0,0,0,2.418.656A5.423,5.423,0,0,0,14.682,7.5H12.091l3.454-3.75L19,7.5H16.409C16.409,11.635,13.309,15,9.5,15ZM3.454,11.25h0L0,7.5H2.591C2.591,3.365,5.691,0,9.5,0a6.472,6.472,0,0,1,3.68,1.163L11.918,2.531A4.768,4.768,0,0,0,9.5,1.875,5.423,5.423,0,0,0,4.319,7.5H6.909L3.455,11.249Z" transform="translate(1 4)" fill="#707070"/>
</svg>
