<svg xmlns="http://www.w3.org/2000/svg" width="19.42" height="25.903" viewBox="0 0 19.42 25.903">
  <g id="collection" transform="translate(-9.8 -12.6)">
    <path id="Path_239" data-name="Path 239" d="M26.789,190.926c-.951-.475-1.858-.929-2.8-1.4.563-.525,1.1-1.027,1.639-1.519a.27.27,0,0,1,.235-.011q1.5.746,3,1.508a.608.608,0,0,1,.355.6v8.934a.722.722,0,0,1-.492.683c-2.749,1.377-5.492,2.765-8.235,4.142-1.169.59-.814.568-1.962-.005-2.727-1.361-5.437-2.743-8.164-4.1a.905.905,0,0,1-.568-.918c.016-2.858.011-5.721,0-8.579a.817.817,0,0,1,.519-.831c.934-.448,1.858-.923,2.776-1.4a.3.3,0,0,1,.4.049c.5.481,1.005.951,1.541,1.448-.934.47-1.847.929-2.787,1.4.087.049.153.093.224.126q3.393,1.68,6.792,3.366a.433.433,0,0,0,.432.033q3.443-1.713,6.89-3.421A.807.807,0,0,0,26.789,190.926Z" transform="translate(0 -165.785)" fill="#fff"/>
    <path id="Path_240" data-name="Path 240" d="M73.483,19.081V13.163c0-.443.126-.563.568-.563h5.328c.443,0,.568.126.568.568v5.9c.115.005.213.016.311.016H82.69c.213,0,.41.022.5.246s-.027.393-.186.546q-2.918,2.721-5.83,5.442c-.35.322-.481.317-.831-.005l-5.727-5.35c-.055-.049-.131-.093-.153-.153a.989.989,0,0,1-.126-.464c.027-.208.219-.262.421-.262h2.721Z" transform="translate(96.335 38.154) rotate(180)" fill="#fff"/>
  </g>
</svg>
