<svg xmlns="http://www.w3.org/2000/svg" width="26" height="26" viewBox="0 0 26 26">
  <g id="Youwin_share" data-name="Youwin share" transform="translate(-275 -99)">
    <circle id="Ellipse_15" data-name="Ellipse 15" cx="13" cy="13" r="13" transform="translate(275 99)" fill="#2d2a2b"/>
    <path id="Path_235" data-name="Path 235" d="M23.391,29.539a.267.267,0,0,1,.022-.286.326.326,0,0,1,.286-.132h2a.645.645,0,0,1,.373.132.733.733,0,0,1,.242.286L26.95,31.3c0,.022.022.022.022.044a.068.068,0,0,0,.022.044l1.45,3.778,2.021-5.646a.734.734,0,0,1,.242-.286.6.6,0,0,1,.373-.132H32.9a.326.326,0,0,1,.286.132.267.267,0,0,1,.022.286L29.52,39.469c-.176.373-.351.7-.505,1.032a3.1,3.1,0,0,1-.637.879,3.232,3.232,0,0,1-1.01.593,4.9,4.9,0,0,1-1.626.2h-.7a.54.54,0,0,1-.33-.11.387.387,0,0,1-.132-.286V40.281A.354.354,0,0,1,24.709,40a.431.431,0,0,1,.33-.11h.373a2.391,2.391,0,0,0,.615-.066,1.331,1.331,0,0,0,.4-.176,1.49,1.49,0,0,0,.264-.264,1.474,1.474,0,0,0,.176-.373l.088-.483-3.537-8.963Z" transform="translate(259.699 76.863)" fill="#c00"/>
  </g>
</svg>
